<?xml version="1.0" encoding="UTF-8"?>
<svg xmlns="http://www.w3.org/2000/svg" xmlns:xlink="http://www.w3.org/1999/xlink" width="375pt" height="374.999991pt" viewBox="0 0 375 374.999991" version="1.2">
<g id="surface1">
<path style=" stroke:none;fill-rule:nonzero;fill:rgb(59.999084%,66.668701%,70.979309%);fill-opacity:1;" d="M 138.125 214.546875 C 151.507812 214.546875 197.738281 249.40625 197.714844 292.378906 C 197.738281 335.367188 78.542969 335.367188 78.535156 292.371094 C 78.542969 249.398438 124.742188 214.546875 138.125 214.546875 Z M 138.125 214.546875 "/>
<path style=" stroke:none;fill-rule:nonzero;fill:rgb(79.998779%,83.918762%,86.669922%);fill-opacity:1;" d="M 120.433594 243.917969 C 191.351562 314.84375 259.53125 285.34375 281.164062 263.730469 C 302.785156 242.097656 279.894531 184.171875 230.046875 134.320312 C 180.183594 84.464844 122.246094 61.574219 100.625 83.199219 C 79 104.820312 49.507812 173.003906 120.433594 243.917969 Z M 120.433594 243.917969 "/>
<path style=" stroke:none;fill-rule:nonzero;fill:rgb(39.99939%,45.878601%,49.798584%);fill-opacity:1;" d="M 151.742188 212.597656 C 201.597656 262.453125 259.523438 285.335938 281.15625 263.722656 C 302.777344 242.089844 279.886719 184.164062 230.039062 134.3125 C 180.183594 84.464844 122.246094 61.574219 100.625 83.199219 C 79 104.820312 101.890625 162.757812 151.742188 212.597656 Z M 151.742188 212.597656 "/>
<path style=" stroke:none;fill-rule:nonzero;fill:rgb(79.998779%,83.918762%,86.669922%);fill-opacity:1;" d="M 230.039062 134.3125 C 233.59375 137.875 233.59375 143.644531 230.039062 147.207031 L 172.007812 205.222656 C 168.445312 208.785156 162.675781 208.785156 159.113281 205.222656 C 155.550781 201.667969 155.550781 195.890625 159.113281 192.328125 L 217.136719 134.3125 C 220.707031 130.75 226.46875 130.75 230.039062 134.3125 Z M 230.039062 134.3125 "/>
<path style=" stroke:none;fill-rule:nonzero;fill:rgb(79.998779%,83.918762%,86.669922%);fill-opacity:1;" d="M 242.933594 121.429688 C 250.050781 128.546875 250.050781 140.097656 242.933594 147.214844 C 235.808594 154.339844 224.261719 154.339844 217.136719 147.214844 C 210.019531 140.097656 210.019531 128.546875 217.136719 121.429688 C 224.253906 114.296875 235.808594 114.296875 242.933594 121.429688 Z M 242.933594 121.429688 "/>
<path style=" stroke:none;fill-rule:nonzero;fill:rgb(100%,67.449951%,19.999695%);fill-opacity:1;" d="M 278.859375 146.804688 L 278.453125 146.796875 C 274.023438 146.582031 270.621094 142.808594 270.835938 138.390625 C 270.84375 138.261719 271.34375 121.082031 258.160156 107.902344 C 245.019531 94.765625 227.898438 95.234375 227.664062 95.222656 C 223.25 95.488281 219.472656 92.03125 219.246094 87.617188 C 219.03125 83.191406 222.433594 79.417969 226.863281 79.203125 C 227.839844 79.105469 251.15625 78.214844 269.496094 96.554688 C 287.847656 114.914062 286.90625 138.207031 286.859375 139.191406 C 286.652344 143.46875 283.105469 146.804688 278.859375 146.804688 Z M 278.859375 146.804688 "/>
<path style=" stroke:none;fill-rule:nonzero;fill:rgb(100%,67.449951%,19.999695%);fill-opacity:1;" d="M 307.414062 142.34375 C 306.539062 142.34375 305.640625 142.191406 304.769531 141.886719 C 300.585938 140.417969 298.382812 135.847656 299.851562 131.667969 C 300.121094 130.808594 307.015625 108.589844 282.238281 83.824219 C 257.15625 58.734375 233.089844 64.457031 232.078125 64.710938 C 227.832031 65.8125 223.4375 63.234375 222.320312 58.976562 C 221.199219 54.714844 223.699219 50.359375 227.945312 49.210938 C 229.308594 48.84375 261.683594 40.570312 293.582031 72.488281 C 325.804688 104.691406 315.453125 135.679688 314.988281 136.984375 C 313.835938 140.273438 310.730469 142.34375 307.414062 142.34375 Z M 307.414062 142.34375 "/>
<path style=" stroke:none;fill-rule:nonzero;fill:rgb(39.99939%,45.878601%,49.798584%);fill-opacity:1;" d="M 139.472656 302.800781 C 116.207031 302.800781 95 297.523438 78.769531 288.867188 C 78.703125 290.039062 78.535156 291.191406 78.535156 292.378906 C 78.542969 335.375 197.738281 335.375 197.714844 292.386719 C 197.714844 291.664062 197.59375 290.96875 197.570312 290.253906 C 181.707031 298.085938 161.496094 302.800781 139.472656 302.800781 Z M 139.472656 302.800781 "/>
</g>
</svg>
