<svg width="100" height="73" viewBox="0 0 100 73" fill="none" xmlns="http://www.w3.org/2000/svg">
<path d="M94.8279 22.4915V43.2528H98.2764V22.4915H94.8279Z" fill="#50B3C9"/>
<path d="M1.72357 22.4915V43.2528H5.17207V22.4915H1.72357Z" fill="#50B3C9"/>
<path d="M50 13.8409C49.0503 13.8409 48.2764 13.0631 48.2764 12.1108V5.19033C48.2764 4.23799 49.0503 3.46022 50 3.46022C50.9498 3.46022 51.7236 4.23799 51.7236 5.19033V12.1108C51.7236 13.0631 50.9498 13.8409 50 13.8409Z" fill="#50B3C9"/>
<path d="M96.5528 36.3324H3.4472C1.54121 36.3324 0 34.7846 0 32.8721C0 30.9596 1.54121 29.4119 3.4472 29.4119H96.5528C98.4588 29.4119 100 30.9596 100 32.8721C100 34.7846 98.4588 36.3324 96.5528 36.3324Z" fill="#CFDFE8"/>
<path d="M6.89569 22.4915H0V0H6.89569V22.4915Z" fill="#394D5C"/>
<path d="M20.6897 22.4915H13.7927V0H20.6897V22.4915Z" fill="#394D5C"/>
<path d="M6.89569 65.7443H0V43.2528H6.89569V65.7443Z" fill="#E97424"/>
<path d="M20.6897 65.7443H13.7927V43.2528H20.6897V65.7443Z" fill="#E97424"/>
<path d="M86.2073 22.4915H79.3103V0H86.2073V22.4915Z" fill="#394D5C"/>
<path d="M100 22.4915H93.1043V0H100V22.4915Z" fill="#394D5C"/>
<path d="M86.2073 65.7443H79.3103V43.2528H86.2073V65.7443Z" fill="#E97424"/>
<path d="M100 65.7443H93.1043V43.2528H100V65.7443Z" fill="#E97424"/>
<path d="M68.9661 22.4915H55.1721V12.1108H68.9661V22.4915Z" fill="#CFDFE8"/>
<path d="M55.1721 17.3011C55.1721 20.1673 52.8557 22.4915 50 22.4915C47.1443 22.4915 44.8279 20.1673 44.8279 17.3011C44.8279 14.4363 47.1443 12.1108 50 12.1108C52.8557 12.1108 55.1721 14.4363 55.1721 17.3011Z" fill="#5A6470"/>
<path d="M44.8279 22.4915H31.0339V12.1108H44.8279V22.4915Z" fill="#CFDFE8"/>
<path d="M37.9309 29.4119H31.0339V22.4915H37.9309V29.4119Z" fill="#AABECE"/>
<path d="M68.9661 29.4119H62.0691V22.4915H68.9661V29.4119Z" fill="#AABECE"/>
<path d="M55.1721 29.4119H44.8279V22.4915H55.1721V29.4119Z" fill="#AABECE"/>
<path d="M55.1721 57.0937H44.8279V36.3324H55.1721V57.0937Z" fill="#AABECE"/>
<path d="M50 67.4744C47.1443 67.4744 44.8279 65.1502 44.8279 62.2841V57.0937H55.1721V62.2841C55.1721 65.1502 52.8557 67.4744 50 67.4744Z" fill="#5A6470"/>
<path d="M46.5515 72.6647H32.7588V65.7443H46.5515V72.6647Z" fill="#394D5C"/>
<path d="M67.2412 72.6647H53.4485V65.7443H67.2412V72.6647Z" fill="#394D5C"/>
<path d="M37.9309 57.0937H27.5854V36.3324H37.9309V57.0937Z" fill="#AABECE"/>
<path d="M72.4146 57.0937H62.0691V36.3324H72.4146V57.0937Z" fill="#AABECE"/>
<path d="M37.9309 44.9829H27.5854V41.5227H37.9309V44.9829Z" fill="#394D5C"/>
<path d="M37.9309 51.9034H27.5854V48.4432H37.9309V51.9034Z" fill="#394D5C"/>
<path d="M72.4146 44.9829H62.0691V41.5227H72.4146V44.9829Z" fill="#394D5C"/>
<path d="M72.4146 51.9034H62.0691V48.4432H72.4146V51.9034Z" fill="#394D5C"/>
<path d="M44.8279 50.1733H37.9309V43.2528H44.8279V50.1733Z" fill="#5A6470"/>
<path d="M62.0691 50.1733H55.1721V43.2528H62.0691V50.1733Z" fill="#5A6470"/>
<path d="M18.9648 29.4119H15.5163V22.4915H18.9648V29.4119Z" fill="#50B3C9"/>
<path d="M18.9648 43.2528H15.5163V36.3324H18.9648V43.2528Z" fill="#50B3C9"/>
<path d="M84.4837 29.4119H81.0352V22.4915H84.4837V29.4119Z" fill="#50B3C9"/>
<path d="M84.4837 43.2528H81.0352V36.3324H84.4837V43.2528Z" fill="#50B3C9"/>
<path d="M20.6897 36.3324H13.7927V29.4119H20.6897V36.3324Z" fill="#AABECE"/>
<path d="M86.2073 36.3324H79.3103V29.4119H86.2073V36.3324Z" fill="#AABECE"/>
<path d="M65.5176 36.3324H34.4824V29.4119H65.5176V36.3324Z" fill="#5A6470"/>
</svg>
