<?xml version="1.0" standalone="no"?>
<!DOCTYPE svg PUBLIC "-//W3C//DTD SVG 20010904//EN"
 "http://www.w3.org/TR/2001/REC-SVG-20010904/DTD/svg10.dtd">
<svg version="1.0" xmlns="http://www.w3.org/2000/svg"
 width="700.000000pt" height="700.000000pt" viewBox="0 0 700.000000 700.000000"
 preserveAspectRatio="xMidYMid meet">
<metadata>
Created by potrace 1.11, written by Peter Selinger 2001-2013
</metadata>
<g transform="translate(0.000000,700.000000) scale(0.100000,-0.100000)"
fill="#000000" stroke="none">
<path d="M4316 6090 c-110 -18 -171 -78 -163 -161 5 -60 36 -102 88 -123 36
-15 52 -15 116 -5 247 40 544 -54 788 -249 353 -283 529 -663 460 -998 -15
-70 -15 -77 3 -117 42 -94 157 -117 228 -45 46 45 64 112 71 268 17 391 -172
766 -549 1091 -184 158 -419 276 -648 324 -90 20 -312 28 -394 15z"/>
<path d="M2195 5593 c-62 -9 -150 -35 -199 -60 -60 -31 -157 -120 -190 -177
-213 -364 3 -1057 555 -1786 155 -204 249 -311 469 -531 412 -412 802 -702
1215 -900 550 -264 978 -285 1202 -61 156 155 192 415 107 754 -97 386 -364
862 -728 1298 -48 58 -92 106 -96 108 -5 2 -24 -7 -42 -21 -59 -43 -116 -59
-208 -59 l-85 1 -515 -514 c-479 -478 -518 -514 -556 -520 -90 -14 -169 36
-195 125 -27 88 -37 75 523 637 l511 511 -2 76 c-2 93 10 140 53 205 l34 50
-125 103 c-629 521 -1307 819 -1728 761z"/>
<path d="M4183 5500 c-59 -26 -85 -71 -80 -136 7 -94 51 -128 182 -139 301
-24 547 -180 674 -425 63 -123 101 -263 101 -375 0 -89 64 -159 144 -158 91 2
146 66 146 171 0 133 -53 340 -124 479 -164 324 -483 544 -856 593 -108 14
-140 12 -187 -10z"/>
<path d="M1954 2588 c-148 -151 -252 -294 -336 -463 -83 -165 -121 -292 -142
-477 -15 -130 -8 -197 32 -281 40 -85 101 -150 202 -216 254 -167 702 -245
1124 -196 448 52 763 227 836 462 20 65 27 186 12 210 -4 7 -50 21 -101 33
-456 101 -890 355 -1306 762 -71 70 -152 154 -180 187 -27 33 -52 60 -55 60
-3 1 -42 -36 -86 -81z"/>
</g>
</svg>
